<?xml version="1.0" standalone="no"?>
<!DOCTYPE svg PUBLIC "-//W3C//DTD SVG 1.1//EN" "http://www.w3.org/Graphics/SVG/1.1/DTD/svg11.dtd" >
<svg xmlns="http://www.w3.org/2000/svg" xmlns:xlink="http://www.w3.org/1999/xlink" version="1.1">
<metadata>
Created by FontForge 20170731 at Sun Oct 13 00:30:18 2002
 By ,,,
Copyright (c) 1990, 1992 Adobe Systems Incorporated.  All Rights Reserved. (c) 1981, 2002 Heidelberger Druckmaschinen AG. All rights reserved.
</metadata>
<defs>
<font id="DINNeuzeitGroteskStd-Light" horiz-adv-x="240" >
  <font-face 
    font-family="DIN Neuzeit Grotesk Std Light"
    font-weight="300"
    font-stretch="normal"
    units-per-em="1000"
    panose-1="2 11 5 2 2 2 3 2 2 4"
    ascent="760"
    descent="-240"
    x-height="521"
    cap-height="760"
    bbox="-165 -250 1001 965"
    underline-thickness="50"
    underline-position="-200"
    unicode-range="U+0020-FB02"
  />
<missing-glyph horiz-adv-x="500" 
d="M0 0v700h500v-700h-500zM250 395l170 255h-340zM280 350l170 -255v510zM80 50h340l-170 255zM50 605v-510l170 255z" />
    <glyph glyph-name="f_i" unicode="fi" horiz-adv-x="519" 
d="M98 521v79q0 79 48.5 120.5t130.5 45.5v-90h-18q-33 0 -52 -23.5t-19 -59.5v-72h85v-79h-85v-442h-90v442h-79v79h79zM354 0v521h90v-521h-90zM336 686q0 26 18.5 44.5t44.5 18.5t44.5 -18.5t18.5 -44.5t-18.5 -44.5t-44.5 -18.5t-44.5 18.5t-18.5 44.5z" />
    <glyph glyph-name="f_l" unicode="fl" horiz-adv-x="519" 
d="M95 521v79q0 79 48.5 120.5t129.5 45.5v-90h-17q-33 0 -52 -23.5t-19 -59.5v-72h88v-79h-85v-442h-90v442h-79v79h76zM354 156v604h90v-597q0 -41 16.5 -60t41.5 -19h27v-84h-37q-65 0 -101.5 38.5t-36.5 117.5z" />
    <glyph glyph-name=".notdef" horiz-adv-x="500" 
d="M0 0v700h500v-700h-500zM250 395l170 255h-340zM280 350l170 -255v510zM80 50h340l-170 255zM50 605v-510l170 255z" />
    <glyph glyph-name=".null" horiz-adv-x="0" 
 />
    <glyph glyph-name="nonmarkingreturn" horiz-adv-x="333" 
 />
    <glyph glyph-name="space" unicode=" " horiz-adv-x="260" 
 />
    <glyph glyph-name="exclam" unicode="!" horiz-adv-x="352" 
d="M110 58q0 27 19.5 46.5t46.5 19.5t46.5 -19.5t19.5 -46.5t-19.5 -46.5t-46.5 -19.5t-46.5 19.5t-19.5 46.5zM128 183v577h96v-577h-96z" />
    <glyph glyph-name="quotedbl" unicode="&#x22;" horiz-adv-x="520" 
d="M147 478v282h74v-282h-74zM299 478v282h74v-282h-74z" />
    <glyph glyph-name="numbersign" unicode="#" horiz-adv-x="520" 
d="M316 287l22 160h-134l-22 -160h134zM347 509l31 225h68l-31 -225h103v-62h-112l-22 -160h102v-62h-111l-31 -225h-68l31 225h-134l-31 -225h-68l31 225h-103v62h112l22 160h-102v62h111l31 225h68l-31 -225h134z" />
    <glyph glyph-name="dollar" unicode="$" horiz-adv-x="520" 
d="M229 430v233q-57 -8 -82 -42.5t-25 -75.5q0 -76 107 -115zM285 309v-238q55 4 90 37t35 78q0 76 -118 120zM229 -83v75q-93 8 -150 62t-65 152h96q12 -116 119 -135v258l-34 13q-169 63 -169 200q0 83 57.5 137t145.5 63v75h56v-75q89 -6 146 -62.5t64 -158.5h-90
q-9 60 -40 97.5t-80 44.5v-253l44 -16q177 -63 177 -200q0 -85 -61 -141t-160 -61v-75h-56z" />
    <glyph glyph-name="percent" unicode="%" horiz-adv-x="907" 
d="M298 530v56q0 88 -67 88t-67 -88v-56q0 -87 67 -87t67 87zM205 -8l418 750h79l-418 -750h-79zM743 147v56q0 88 -67 88t-67 -88v-56q0 -87 67 -87t67 87zM85 517v82q0 65 40.5 104t105.5 39t105.5 -39t40.5 -104v-82q0 -65 -40.5 -103.5t-105.5 -38.5t-105.5 38.5
t-40.5 103.5zM530 134v82q0 65 40.5 104t105.5 39t105.5 -39t40.5 -104v-82q0 -65 -40.5 -103.5t-105.5 -38.5t-105.5 38.5t-40.5 103.5z" />
    <glyph glyph-name="ampersand" unicode="&#x26;" horiz-adv-x="741" 
d="M456 189l-132 193q-93 -57 -128 -97.5t-35 -83.5q0 -48 34.5 -83.5t83.5 -35.5q68 0 177 107zM422 595q0 25 -14.5 42.5t-39.5 17.5q-23 0 -41 -16.5t-18 -46.5q0 -36 44 -98q69 46 69 101zM523 251l110 100l61 -63l-120 -108l129 -180h-117l-81 117q-67 -67 -117 -96
t-113 -29q-88 0 -146 59.5t-58 143.5q0 83 51 141t157 114q-35 48 -47.5 76.5t-12.5 62.5q0 65 42 105t107 40q67 0 105.5 -42.5t38.5 -89.5q0 -104 -113 -174z" />
    <glyph glyph-name="quotesingle" unicode="'" horiz-adv-x="296" 
d="M111 478v282h74v-282h-74z" />
    <glyph glyph-name="parenleft" unicode="(" horiz-adv-x="352" 
d="M326 -166l-67 -54q-190 237 -190 508t190 508l67 -54q-161 -203 -161 -454t161 -454z" />
    <glyph glyph-name="parenright" unicode=")" horiz-adv-x="352" 
d="M93 -220l-67 54q161 203 161 454t-161 454l67 54q190 -237 190 -508t-190 -508z" />
    <glyph glyph-name="asterisk" unicode="*" horiz-adv-x="408" 
d="M175 627l-4 133h66l-4 -133l120 45l18 -62l-122 -37l83 -104l-55 -34l-73 106l-73 -106l-55 34l83 104l-122 37l18 62z" />
    <glyph glyph-name="plus" unicode="+" horiz-adv-x="600" 
d="M263 290v216h74v-216h216v-74h-216v-216h-74v216h-216v74h216z" />
    <glyph glyph-name="comma" unicode="," horiz-adv-x="260" 
d="M4 -138l100 262l91 -44l-126 -247z" />
    <glyph glyph-name="hyphen" unicode="-" horiz-adv-x="296" 
d="M30 231v90h236v-90h-236z" />
    <glyph glyph-name="period" unicode="." horiz-adv-x="260" 
d="M64 58q0 27 19.5 46.5t46.5 19.5t46.5 -19.5t19.5 -46.5t-19.5 -46.5t-46.5 -19.5t-46.5 19.5t-19.5 46.5z" />
    <glyph glyph-name="slash" unicode="/" horiz-adv-x="463" 
d="M20 -12l344 784h79l-344 -784h-79z" />
    <glyph glyph-name="zero" unicode="0" horiz-adv-x="520" 
d="M43 237v281q0 94 59 159t158 65t158 -65t59 -159v-281q0 -121 -58.5 -183t-158.5 -62t-158.5 62t-58.5 183zM387 208v313q0 58 -32 97.5t-95 39.5t-95 -39.5t-32 -97.5v-313q0 -58 32 -97.5t95 -39.5t95 39.5t32 97.5z" />
    <glyph glyph-name="one" unicode="1" horiz-adv-x="406" 
d="M45 528v96l233 131v-755h-90v613z" />
    <glyph glyph-name="two" unicode="2" horiz-adv-x="520" 
d="M25 0l281 419q19 28 28.5 44.5t19.5 43.5t10 51q0 41 -31 70.5t-74 29.5q-54 0 -88.5 -30t-38.5 -94h-90q2 93 60 150.5t150 57.5q84 0 143 -49t59 -134q0 -69 -38 -126l-231 -349h263v-84h-423z" />
    <glyph glyph-name="three" unicode="3" horiz-adv-x="520" 
d="M79 347l213 303h-247v84h407l-194 -282q93 0 153.5 -60t60.5 -161q0 -103 -69.5 -171t-166.5 -68q-80 0 -130 26t-96 102l77 43q47 -92 142 -92q59 0 106 42t47 111q0 71 -45.5 115.5t-117.5 44.5q-76 0 -127 -49z" />
    <glyph glyph-name="four" unicode="4" horiz-adv-x="520" 
d="M311 261v262h-2l-182 -262h184zM311 0v182h-299v40l371 529h18v-490h83v-79h-83v-182h-90z" />
    <glyph glyph-name="five" unicode="5" horiz-adv-x="520" 
d="M79 321l-10 7v406h355v-84h-271v-206q48 20 96 20q84 0 155 -62t71 -170q0 -100 -66.5 -170t-163.5 -70q-82 0 -136 32t-94 97l75 49q49 -99 148 -99q56 0 101.5 41t45.5 118q0 67 -44 111t-108 44q-84 0 -154 -64z" />
    <glyph glyph-name="six" unicode="6" horiz-adv-x="520" 
d="M123 217q0 -68 39.5 -107t97.5 -39q60 0 98.5 40t38.5 106t-38.5 106.5t-98.5 40.5q-58 0 -97.5 -39.5t-39.5 -107.5zM316 742h108l-207 -306l2 -2q21 9 62 9q91 0 148.5 -66.5t57.5 -152.5q0 -101 -64.5 -166.5t-157.5 -65.5q-100 0 -166 61.5t-66 163.5q0 50 19 97
t71 128z" />
    <glyph glyph-name="seven" unicode="7" horiz-adv-x="520" 
d="M72 0l272 650h-297v84h426l-305 -734h-96z" />
    <glyph glyph-name="eight" unicode="8" horiz-adv-x="520" 
d="M397 213q0 62 -39.5 101t-97.5 39t-97.5 -39t-39.5 -101q0 -64 39.5 -103t97.5 -39t97.5 39t39.5 103zM367 552q0 48 -31 79.5t-76 31.5t-76 -31.5t-31 -79.5q0 -47 31 -78t76 -31t76 31t31 78zM33 208q0 66 34 117t91 75q-45 22 -70 61.5t-25 88.5q0 76 51 134t146 58
t146 -58t51 -134q0 -49 -25 -88.5t-70 -61.5q57 -24 91 -75t34 -117q0 -89 -62 -152.5t-165 -63.5t-165 63.5t-62 152.5z" />
    <glyph glyph-name="nine" unicode="9" horiz-adv-x="520" 
d="M397 517q0 68 -39.5 107t-97.5 39q-60 0 -98.5 -40t-38.5 -106t38.5 -106.5t98.5 -40.5q58 0 97.5 39.5t39.5 107.5zM96 -8l207 306l-2 2q-21 -9 -62 -9q-91 0 -148.5 66.5t-57.5 152.5q0 101 64.5 166.5t157.5 65.5q100 0 166 -61.5t66 -163.5q0 -50 -19 -97t-71 -128
l-193 -300h-108z" />
    <glyph glyph-name="colon" unicode=":" horiz-adv-x="260" 
d="M64 58q0 27 19.5 46.5t46.5 19.5t46.5 -19.5t19.5 -46.5t-19.5 -46.5t-46.5 -19.5t-46.5 19.5t-19.5 46.5zM64 467q0 27 19.5 46.5t46.5 19.5t46.5 -19.5t19.5 -46.5t-19.5 -46.5t-46.5 -19.5t-46.5 19.5t-19.5 46.5z" />
    <glyph glyph-name="semicolon" unicode=";" horiz-adv-x="260" 
d="M4 -138l100 262l91 -44l-126 -247zM64 467q0 27 19.5 46.5t46.5 19.5t46.5 -19.5t19.5 -46.5t-19.5 -46.5t-46.5 -19.5t-46.5 19.5t-19.5 46.5z" />
    <glyph glyph-name="less" unicode="&#x3c;" horiz-adv-x="600" 
d="M47 219v68l506 227v-74l-416 -187l416 -187v-74z" />
    <glyph glyph-name="equal" unicode="=" horiz-adv-x="600" 
d="M47 318v74h506v-74h-506zM47 114v74h506v-74h-506z" />
    <glyph glyph-name="greater" unicode="&#x3e;" horiz-adv-x="600" 
d="M463 253l-416 187v74l506 -227v-68l-506 -227v74z" />
    <glyph glyph-name="question" unicode="?" horiz-adv-x="520" 
d="M263 183h-90q0 101 19.5 152t75.5 95l54 42q26 21 37 41t11 51q0 47 -30.5 79.5t-76.5 32.5q-56 0 -84.5 -35.5t-28.5 -89.5h-96q6 95 61.5 152t149.5 57q90 0 145.5 -58.5t55.5 -141.5q0 -45 -16 -79t-61 -69l-59 -46q-42 -33 -54.5 -64t-12.5 -119zM152 58
q0 27 19.5 46.5t46.5 19.5t46.5 -19.5t19.5 -46.5t-19.5 -46.5t-46.5 -19.5t-46.5 19.5t-19.5 46.5z" />
    <glyph glyph-name="at" unicode="@" horiz-adv-x="800" 
d="M512 431q0 38 -26.5 67.5t-61.5 29.5q-71 0 -120 -66.5t-49 -138.5q0 -45 26 -73t69 -28q65 0 113.5 70t48.5 139zM545 521l19 64h79l-83 -275q-15 -54 -15 -69q0 -25 21 -25q59 0 108.5 70t49.5 154q0 123 -87.5 196.5t-218.5 73.5q-146 0 -241 -96.5t-95 -236.5
q0 -139 99 -233t245 -94q76 0 146.5 32.5t116.5 87.5h74q-53 -85 -144 -133.5t-195 -48.5q-175 0 -295.5 114t-120.5 280q0 163 120.5 276.5t289.5 113.5q154 0 264 -91.5t110 -231.5q0 -67 -27 -126t-67 -96t-84 -58t-82 -21q-29 0 -48 16t-22 48h-3q-58 -64 -129 -64
q-69 0 -114 48.5t-45 117.5q0 71 30.5 136.5t89 108.5t131.5 43q87 0 123 -81z" />
    <glyph glyph-name="A" unicode="A" horiz-adv-x="740" 
d="M616 0l-69 177h-354l-69 -177h-105l309 760h84l309 -760h-105zM514 261l-144 373l-144 -373h288z" />
    <glyph glyph-name="B" unicode="B" horiz-adv-x="630" 
d="M76 0v760h198q109 0 171 -44q82 -59 82 -166q0 -103 -95 -150v-2q69 -10 108.5 -61t39.5 -122q0 -92 -66 -153.5t-163 -61.5h-275zM172 84h146q166 0 166 130q0 54 -39 92.5t-127 38.5h-146v-261zM172 429h120q60 0 99.5 32.5t39.5 86.5q0 58 -38 93t-120 35h-101v-247z
" />
    <glyph glyph-name="C" unicode="C" horiz-adv-x="741" 
d="M714 675l-65 -71q-86 78 -196 78q-122 0 -211.5 -86.5t-89.5 -215.5t90.5 -215.5t210.5 -86.5q117 0 203 81l61 -69q-51 -47 -122 -74.5t-142 -27.5q-93 0 -171 34.5t-127.5 91t-77 125.5t-27.5 141t27.5 141t77 125.5t127.5 91t171 34.5q74 0 144 -27t117 -70z" />
    <glyph glyph-name="D" unicode="D" horiz-adv-x="741" 
d="M76 0v760h250q144 0 254.5 -109t110.5 -268q0 -162 -113 -272.5t-276 -110.5h-226zM172 90h129q126 0 207 85.5t81 212.5q0 121 -85.5 201.5t-210.5 80.5h-121v-580z" />
    <glyph glyph-name="E" unicode="E" horiz-adv-x="519" 
d="M76 0v760h393v-90h-297v-241h297v-90h-297v-249h297v-90h-393z" />
    <glyph glyph-name="F" unicode="F" horiz-adv-x="519" 
d="M76 0v760h393v-90h-297v-241h297v-90h-297v-339h-96z" />
    <glyph glyph-name="G" unicode="G" horiz-adv-x="906" 
d="M477 329v90h383q0 -197 -117 -314t-284 -117q-93 0 -171 34.5t-127.5 91t-77 125.5t-27.5 141t27.5 141t77 125.5t127.5 91t171 34.5q148 0 268 -103l-61 -72q-91 85 -207 85q-122 0 -211.5 -86.5t-89.5 -215.5t90.5 -215.5t210.5 -86.5q106 0 189.5 67.5t106.5 183.5
h-278z" />
    <glyph glyph-name="H" unicode="H" horiz-adv-x="741" 
d="M569 434v326h96v-760h-96v344h-397v-344h-96v760h96v-326h397z" />
    <glyph glyph-name="I" unicode="I" 
d="M72 0v760h96v-760h-96z" />
    <glyph glyph-name="J" unicode="J" horiz-adv-x="463" 
d="M52 670v90h335v-513q0 -125 -78 -192t-212 -67q-30 0 -56 2v88h33q115 0 166 42t51 148v402h-239z" />
    <glyph glyph-name="K" unicode="K" horiz-adv-x="630" 
d="M172 412l310 348h123l-341 -371l349 -389h-138l-303 347v-347h-96v760h96v-348z" />
    <glyph glyph-name="L" unicode="L" horiz-adv-x="463" 
d="M76 0v760h96v-670h267v-90h-363z" />
    <glyph glyph-name="M" unicode="M" horiz-adv-x="962" 
d="M481 186l309 574h96v-760h-96v563h-2l-307 -571l-307 571h-2v-563h-96v760h96z" />
    <glyph glyph-name="N" unicode="N" horiz-adv-x="740" 
d="M572 172v588h96v-760h-90l-408 588h-2v-588h-96v760h90l408 -588h2z" />
    <glyph glyph-name="O" unicode="O" horiz-adv-x="906" 
d="M50 380q0 72 27.5 141t77 125.5t127.5 91t171 34.5t171 -34.5t127.5 -91t77 -125.5t27.5 -141t-27.5 -141t-77 -125.5t-127.5 -91t-171 -34.5t-171 34.5t-127.5 91t-77 125.5t-27.5 141zM152 380q0 -131 90 -216.5t211 -85.5t211 85.5t90 216.5t-90 216.5t-211 85.5
t-211 -85.5t-90 -216.5z" />
    <glyph glyph-name="P" unicode="P" horiz-adv-x="574" 
d="M76 0v760h210q116 0 186.5 -75t70.5 -176t-70.5 -175.5t-186.5 -74.5h-114v-259h-96zM172 343h94q87 0 134 42t47 124t-47 124.5t-134 42.5h-94v-333z" />
    <glyph glyph-name="Q" unicode="Q" horiz-adv-x="906" 
d="M774 -19l-81 81q-104 -74 -240 -74q-93 0 -171 34.5t-127.5 91t-77 125.5t-27.5 141t27.5 141t77 125.5t127.5 91t171 34.5t171 -34.5t127.5 -91t77 -125.5t27.5 -141q0 -146 -98 -259l78 -78zM608 270l80 -79q66 82 66 189q0 131 -90 216.5t-211 85.5t-211 -85.5
t-90 -216.5t90 -216.5t211 -85.5q94 0 170 53l-77 77z" />
    <glyph glyph-name="R" unicode="R" horiz-adv-x="630" 
d="M480 0l-308 324v-324h-96v760h219q112 0 183.5 -61.5t71.5 -168.5q0 -98 -67 -160t-164 -67l296 -303h-135zM172 676v-293q13 -1 84 -1q198 0 198 147q0 67 -43 107t-118 40h-121z" />
    <glyph glyph-name="S" unicode="S" horiz-adv-x="574" 
d="M522 543h-90q-10 68 -48 106.5t-98 38.5q-73 0 -105 -37.5t-32 -85.5q0 -80 111 -121l96 -36q177 -66 177 -208q0 -93 -67.5 -152.5t-176.5 -59.5q-107 0 -173 57t-75 168h96q14 -141 157 -141q62 0 102.5 34.5t40.5 85.5q0 78 -118 124l-97 38q-169 66 -169 208
q0 95 68 152.5t166 57.5t162.5 -58.5t72.5 -170.5z" />
    <glyph glyph-name="T" unicode="T" horiz-adv-x="518" 
d="M211 0v670h-190v90h476v-90h-190v-670h-96z" />
    <glyph glyph-name="U" unicode="U" horiz-adv-x="740" 
d="M72 276v484h96v-456q0 -98 53 -162t149 -64t149 64t53 162v456h96v-484q0 -124 -84.5 -206t-215.5 -82q-128 0 -212 82t-84 206z" />
    <glyph glyph-name="V" unicode="V" horiz-adv-x="684" 
d="M343 153l218 607h102l-281 -760h-80l-281 760h102l218 -607h2z" />
    <glyph glyph-name="W" unicode="W" horiz-adv-x="1018" 
d="M729 181l170 579h102l-234 -760h-74l-183 602h-2l-183 -602h-74l-234 760h102l170 -577h2l173 577h90l173 -579h2z" />
    <glyph glyph-name="X" unicode="X" horiz-adv-x="684" 
d="M342 466l194 294h117l-252 -373l263 -387h-119l-203 307l-203 -307h-119l263 387l-252 373h117z" />
    <glyph glyph-name="Y" unicode="Y" horiz-adv-x="630" 
d="M315 404l193 356h112l-257 -457v-303h-96v303l-257 457h112z" />
    <glyph glyph-name="Z" unicode="Z" horiz-adv-x="630" 
d="M25 0l416 670h-379v90h543l-416 -670h396v-90h-560z" />
    <glyph glyph-name="bracketleft" unicode="[" horiz-adv-x="352" 
d="M116 -184v944h197v-74h-107v-796h107v-74h-197z" />
    <glyph glyph-name="backslash" unicode="\" horiz-adv-x="463" 
d="M364 -12l-344 784h79l344 -784h-79z" />
    <glyph glyph-name="bracketright" unicode="]" horiz-adv-x="352" 
d="M146 -110v796h-107v74h197v-944h-197v74h107z" />
    <glyph glyph-name="asciicircum" unicode="^" horiz-adv-x="600" 
d="M468 310l-168 345l-168 -345h-79l213 424h68l213 -424h-79z" />
    <glyph glyph-name="underscore" unicode="_" horiz-adv-x="500" 
d="M0 -125v50h500v-50h-500z" />
    <glyph glyph-name="grave" unicode="`" 
d="M106 602l-131 124v8h121l81 -132h-71z" />
    <glyph glyph-name="a" unicode="a" horiz-adv-x="574" 
d="M419 295v54q0 58 -45.5 81.5t-110.5 23.5q-71 0 -144 -36l-39 75q96 40 188 40q102 0 171.5 -44.5t69.5 -132.5v-356h-84v56q-65 -68 -166 -68q-98 0 -162.5 51t-64.5 136q0 75 61 127t165 52q95 0 161 -59zM422 171q0 44 -35.5 74t-111.5 30t-111.5 -30t-35.5 -74
t35.5 -74t111.5 -30t111.5 30t35.5 74z" />
    <glyph glyph-name="b" unicode="b" horiz-adv-x="684" 
d="M540 265q0 71 -52.5 127.5t-138.5 56.5q-74 0 -129 -55.5t-55 -133.5t55 -133t132 -55q75 0 131.5 53.5t56.5 139.5zM75 0v760h90v-321h2q31 45 84.5 69.5t113.5 24.5q111 0 191 -77.5t80 -189.5q0 -120 -81.5 -199t-193.5 -79q-129 0 -194 92h-2v-80h-90z" />
    <glyph glyph-name="c" unicode="c" horiz-adv-x="519" 
d="M495 468l-61 -71q-53 52 -121 52q-71 0 -121.5 -51t-50.5 -142q0 -79 51.5 -131.5t129.5 -52.5q59 0 116 53l53 -66q-70 -71 -180 -71q-117 0 -191.5 80t-74.5 191q0 113 77.5 193.5t189.5 80.5q108 0 183 -65z" />
    <glyph glyph-name="d" unicode="d" horiz-adv-x="684" 
d="M519 260q0 78 -55 133.5t-129 55.5q-86 0 -138.5 -56.5t-52.5 -127.5q0 -86 56.5 -139.5t131.5 -53.5q77 0 132 55t55 133zM519 439v321h90v-760h-90v80h-2q-65 -92 -194 -92q-112 0 -193.5 79t-81.5 199q0 112 80 189.5t191 77.5q60 0 113.5 -24.5t84.5 -69.5h2z" />
    <glyph glyph-name="e" unicode="e" horiz-adv-x="630" 
d="M495 156l69 -55q-101 -113 -235 -113q-132 0 -208 81t-76 192q0 114 75 193t194 79q121 0 197 -85t76 -222h-446q11 -68 61.5 -111t125.5 -43q95 0 167 84zM141 300h344q-7 65 -55 107t-117 42q-76 0 -120 -44.5t-52 -104.5z" />
    <glyph glyph-name="f" unicode="f" horiz-adv-x="296" 
d="M98 521v79q0 79 48.5 120.5t130.5 45.5v-90h-18q-33 0 -52 -23.5t-19 -59.5v-72h85v-79h-85v-442h-90v442h-79v79h79z" />
    <glyph glyph-name="g" unicode="g" horiz-adv-x="684" 
d="M512 439v82h90v-449q0 -146 -72 -219t-222 -73q-142 0 -243 112l72 57q72 -90 173 -90q202 0 202 186v37h-2q-39 -46 -83.5 -67t-117.5 -21q-122 0 -195 85t-73 186q0 112 80 190t191 78q60 0 113.5 -24.5t84.5 -69.5h2zM512 260q0 78 -55 133.5t-129 55.5
q-86 0 -138.5 -56.5t-52.5 -127.5q0 -86 56.5 -139t131.5 -53q77 0 132 54.5t55 132.5z" />
    <glyph glyph-name="h" unicode="h" horiz-adv-x="574" 
d="M415 0v303q0 64 -29 105t-92 41t-99 -41t-36 -115v-293h-90v760h90v-300h2q20 34 59 53.5t84 19.5q84 0 142.5 -48.5t58.5 -147.5v-337h-90z" />
    <glyph glyph-name="i" unicode="i" 
d="M75 0v521h90v-521h-90zM57 686q0 26 18.5 44.5t44.5 18.5t44.5 -18.5t18.5 -44.5t-18.5 -44.5t-44.5 -18.5t-44.5 18.5t-18.5 44.5z" />
    <glyph glyph-name="j" unicode="j" 
d="M75 -47v568h90v-559q0 -86 -41 -131t-114 -51v84q32 0 48.5 23.5t16.5 65.5zM57 686q0 26 18.5 44.5t44.5 18.5t44.5 -18.5t18.5 -44.5t-18.5 -44.5t-44.5 -18.5t-44.5 18.5t-18.5 44.5z" />
    <glyph glyph-name="k" unicode="k" horiz-adv-x="519" 
d="M165 294l220 227h118l-241 -241l246 -280h-126l-217 253v-253h-90v760h90v-466z" />
    <glyph glyph-name="l" unicode="l" 
d="M63 760h90v-597q0 -41 16.5 -60t41.5 -19h27v-84h-37q-65 0 -101.5 38.5t-36.5 117.5v604z" />
    <glyph glyph-name="m" unicode="m" horiz-adv-x="906" 
d="M743 0v319q0 64 -32 97t-82 33q-58 0 -94.5 -35.5t-36.5 -98.5v-315h-90v319q0 64 -32 97t-82 33q-58 0 -94.5 -35.5t-36.5 -98.5v-315h-90v521h90v-62h2q17 37 57.5 55.5t86.5 18.5q103 0 154 -90q44 90 170 90q88 0 144 -52.5t56 -151.5v-329h-90z" />
    <glyph glyph-name="n" unicode="n" horiz-adv-x="574" 
d="M415 0v303q0 64 -29 105t-92 41t-99 -41t-36 -115v-293h-90v521h90v-61h2q20 34 59 53.5t84 19.5q84 0 142.5 -48.5t58.5 -147.5v-337h-90z" />
    <glyph glyph-name="o" unicode="o" horiz-adv-x="684" 
d="M60 260q0 112 80.5 192.5t201.5 80.5t201.5 -80.5t80.5 -192.5q0 -114 -78.5 -193t-203.5 -79t-203.5 79t-78.5 193zM342 449q-76 0 -131 -54.5t-55 -134.5q0 -75 55.5 -131.5t130.5 -56.5t130.5 56.5t55.5 131.5q0 80 -55 134.5t-131 54.5z" />
    <glyph glyph-name="p" unicode="p" horiz-adv-x="684" 
d="M540 265q0 71 -52.5 127.5t-138.5 56.5q-74 0 -129 -55.5t-55 -133.5t55 -133t132 -55q75 0 131.5 53.5t56.5 139.5zM75 -220v741h90v-82h2q31 45 84.5 69.5t113.5 24.5q111 0 191 -77.5t80 -189.5q0 -120 -81.5 -199t-193.5 -79q-129 0 -194 92h-2v-300h-90z" />
    <glyph glyph-name="q" unicode="q" horiz-adv-x="684" 
d="M519 260q0 78 -55 133.5t-129 55.5q-86 0 -138.5 -56.5t-52.5 -127.5q0 -86 56.5 -139.5t131.5 -53.5q77 0 132 55t55 133zM519 439v82h90v-741h-90v300h-2q-65 -92 -194 -92q-112 0 -193.5 79t-81.5 199q0 112 80 189.5t191 77.5q60 0 113.5 -24.5t84.5 -69.5h2z" />
    <glyph glyph-name="r" unicode="r" horiz-adv-x="352" 
d="M75 0v521h90v-74h2q31 56 65 71t99 15v-95q-22 5 -41 5q-57 0 -91 -38.5t-34 -108.5v-296h-90z" />
    <glyph glyph-name="s" unicode="s" horiz-adv-x="463" 
d="M39 152h84q4 -40 34.5 -62.5t73.5 -22.5q55 0 79 23t24 52q0 26 -20.5 43t-71.5 31l-91 25q-106 29 -106 134q0 68 49.5 113t136.5 45q92 0 135.5 -47.5t43.5 -114.5h-84q-10 88 -97 88q-42 0 -68 -21.5t-26 -53.5q0 -46 58 -63l122 -35q59 -17 84 -50t25 -86
q0 -76 -56 -119t-133 -43q-90 0 -142 44.5t-54 119.5z" />
    <glyph glyph-name="t" unicode="t" horiz-adv-x="296" 
d="M91 521v126h90v-126h83v-79h-83v-320q0 -21 9 -29.5t35 -8.5h41v-83q-13 -1 -55 -1q-68 0 -94 25.5t-26 86.5v330h-72v79h72z" />
    <glyph glyph-name="u" unicode="u" horiz-adv-x="574" 
d="M415 0v61h-2q-20 -34 -59 -53.5t-84 -19.5q-84 0 -142.5 48.5t-58.5 147.5v337h90v-303q0 -64 29 -105t92 -41t99 41t36 115v293h90v-521h-90z" />
    <glyph glyph-name="v" unicode="v" horiz-adv-x="574" 
d="M287 120l165 401h102l-225 -521h-84l-225 521h102z" />
    <glyph glyph-name="w" unicode="w" horiz-adv-x="852" 
d="M606 144l131 377h96l-192 -521h-74l-140 407h-2l-140 -407h-74l-192 521h96l131 -377h2l130 377h96l130 -377h2z" />
    <glyph glyph-name="x" unicode="x" horiz-adv-x="574" 
d="M287 333l147 188h114l-202 -255l210 -266h-120l-149 194l-155 -194h-114l210 266l-202 255h120z" />
    <glyph glyph-name="y" unicode="y" horiz-adv-x="574" 
d="M128 -220l97 228l-217 513h102l167 -402l169 402h96l-320 -741h-94z" />
    <glyph glyph-name="z" unicode="z" horiz-adv-x="463" 
d="M21 0l272 442h-244v79h393l-270 -442h257v-79h-408z" />
    <glyph glyph-name="braceleft" unicode="{" horiz-adv-x="352" 
d="M65 257v62q38 0 60 38.5t22 91.5v182q0 58 31 93.5t72 35.5h67v-62h-34q-46 0 -46 -97v-170q0 -112 -82 -142v-2q82 -30 82 -142v-170q0 -97 46 -97h34v-62h-67q-41 0 -72 35.5t-31 93.5v182q0 53 -22 91.5t-60 38.5z" />
    <glyph glyph-name="bar" unicode="|" horiz-adv-x="222" 
d="M74 -250v1000h74v-1000h-74z" />
    <glyph glyph-name="braceright" unicode="}" horiz-adv-x="352" 
d="M35 -184v62h34q46 0 46 97v170q0 112 82 142v2q-82 30 -82 142v170q0 97 -46 97h-34v62h67q41 0 72 -35.5t31 -93.5v-182q0 -53 22 -91.5t60 -38.5v-62q-38 0 -60 -38.5t-22 -91.5v-182q0 -58 -31 -93.5t-72 -35.5h-67z" />
    <glyph glyph-name="asciitilde" unicode="~" horiz-adv-x="600" 
d="M105 180l-36 56q46 86 125 86q44 0 116 -35q74 -35 97 -35q44 0 88 74l36 -56q-46 -86 -125 -86q-44 0 -116 35q-74 35 -97 35q-44 0 -88 -74z" />
    <glyph glyph-name="uni00A0" unicode="&#xa0;" horiz-adv-x="260" 
 />
    <glyph glyph-name="exclamdown" unicode="&#xa1;" horiz-adv-x="352" 
d="M110 482q0 27 19.5 46.5t46.5 19.5t46.5 -19.5t19.5 -46.5t-19.5 -46.5t-46.5 -19.5t-46.5 19.5t-19.5 46.5zM128 -220v577h96v-577h-96z" />
    <glyph glyph-name="cent" unicode="&#xa2;" horiz-adv-x="520" 
d="M251 95l87 353q-4 1 -15 1q-71 0 -121.5 -51t-50.5 -142q0 -54 27 -97t73 -64zM201 -107l28 115q-79 28 -126.5 97.5t-47.5 153.5q0 113 77.5 193.5t189.5 80.5q20 0 36 -3l24 96h52l-26 -107q57 -16 97 -51l-61 -71q-27 27 -57 38l-88 -355q13 -4 33 -4q59 0 116 53
l53 -66q-70 -71 -180 -71q-23 0 -43 4l-25 -103h-52z" />
    <glyph glyph-name="sterling" unicode="&#xa3;" horiz-adv-x="520" 
d="M57 352v50h79q-62 72 -62 146q0 85 59 139.5t145 54.5q173 0 203 -183h-96q-7 45 -33 74.5t-72 29.5q-45 0 -77.5 -26.5t-32.5 -84.5q0 -52 74 -150h175v-50h-143q34 -49 34 -100q0 -60 -61 -114q39 0 89 -28t83 -28q34 0 76 36v-99q-43 -27 -88 -27q-37 0 -105 33.5
t-97 33.5q-55 0 -67 -59h-84q1 45 33.5 88.5t87.5 54.5q3 1 13 15.5t20 37.5t10 42q0 61 -46 114h-117z" />
    <glyph glyph-name="currency" unicode="&#xa4;" horiz-adv-x="520" 
d="M406 557l55 53l43 -44l-53 -54q50 -63 50 -145q0 -81 -50 -146l53 -53l-43 -44l-55 53q-62 -51 -146 -51t-146 51l-55 -53l-43 44l53 53q-50 65 -50 146q0 82 50 145l-53 54l43 44l55 -53q62 51 146 51t146 -51zM427 367q0 70 -48.5 118.5t-118.5 48.5t-118.5 -48.5
t-48.5 -118.5t48.5 -118.5t118.5 -48.5t118.5 48.5t48.5 118.5z" />
    <glyph glyph-name="yen" unicode="&#xa5;" horiz-adv-x="520" 
d="M218 0v180h-176v56h176v67l-17 37h-159v56h134l-155 338h96l143 -332l143 332h96l-155 -338h134v-56h-159l-17 -37v-67h176v-56h-176v-180h-84z" />
    <glyph glyph-name="brokenbar" unicode="&#xa6;" horiz-adv-x="222" 
d="M74 -175v350h74v-350h-74zM74 325v350h74v-350h-74z" />
    <glyph glyph-name="section" unicode="&#xa7;" horiz-adv-x="520" 
d="M57 -6h90q1 -53 35.5 -80.5t78.5 -27.5q47 0 75.5 25t28.5 69q0 35 -20 57.5t-72 39.5l-75 25q-146 49 -146 182q0 109 100 166q-93 43 -93 143q0 80 58 129.5t145 49.5q86 0 140 -49.5t58 -144.5h-90q0 53 -30 84t-87 31q-42 0 -73 -26.5t-31 -61.5q0 -45 21 -69t68 -38
l99 -30q131 -40 131 -178q0 -114 -106 -164q99 -42 99 -144q0 -77 -58 -126t-139 -49q-56 0 -98 17.5t-64.5 46.5t-33.5 60t-11 63zM372 288q0 56 -33 84.5t-79 28.5t-79 -28.5t-33 -84.5t33.5 -84t79.5 -28q45 0 78 28t33 84z" />
    <glyph glyph-name="dieresis" unicode="&#xa8;" 
d="M150 665q0 26 18.5 44.5t44.5 18.5t44.5 -18.5t18.5 -44.5t-18.5 -44.5t-44.5 -18.5t-44.5 18.5t-18.5 44.5zM-36 665q0 26 18.5 44.5t44.5 18.5t44.5 -18.5t18.5 -44.5t-18.5 -44.5t-44.5 -18.5t-44.5 18.5t-18.5 44.5z" />
    <glyph glyph-name="copyright" unicode="&#xa9;" horiz-adv-x="800" 
d="M536 307h71q-15 -77 -67.5 -121.5t-125.5 -44.5q-104 0 -168 68.5t-64 172.5q0 105 62 171.5t167 66.5q77 0 131 -42.5t65 -118.5h-71q-9 43 -42.5 71t-81.5 28q-71 0 -111 -49.5t-40 -125.5q0 -73 42.5 -126.5t110.5 -53.5q48 0 82 29.5t40 74.5zM8 380q0 162 115 277
t277 115t277 -115t115 -277t-115 -277t-277 -115t-277 115t-115 277zM724 380q0 134 -95 229t-229 95t-229 -95t-95 -229t95 -229t229 -95t229 95t95 229z" />
    <glyph glyph-name="ordfeminine" unicode="&#xaa;" horiz-adv-x="373" 
d="M260 602v21q0 63 -98 63q-43 0 -91 -21l-25 53q61 24 122 24q68 0 114 -27t46 -79v-217h-58v34q-42 -41 -108 -41q-64 0 -105.5 31t-41.5 85q0 47 38.5 78t105.5 31q59 0 101 -35zM261 523q0 23 -22.5 40.5t-67.5 17.5q-44 0 -66 -17.5t-22 -40.5q0 -22 22 -38.5
t67 -16.5t67 16.5t22 38.5z" />
    <glyph glyph-name="guillemotleft" unicode="&#xab;" horiz-adv-x="520" 
d="M270 276l107 192h84l-112 -192l112 -192h-84zM68 276l107 192h84l-112 -192l112 -192h-84z" />
    <glyph glyph-name="logicalnot" unicode="&#xac;" horiz-adv-x="600" 
d="M479 108v210h-432v74h506v-284h-74z" />
    <glyph glyph-name="uni00AD" unicode="&#xad;" horiz-adv-x="296" 
d="M30 231v90h236v-90h-236z" />
    <glyph glyph-name="registered" unicode="&#xae;" horiz-adv-x="800" 
d="M8 380q0 162 115 277t277 115t277 -115t115 -277t-115 -277t-277 -115t-277 115t-115 277zM724 380q0 134 -95 229t-229 95t-229 -95t-95 -229t95 -229t229 -95t229 95t95 229zM508 154l-118 197h-72v-197h-68v452h171q81 0 120 -31.5t39 -97.5q0 -108 -116 -124
l129 -199h-85zM318 407h92q53 0 77.5 17t24.5 54q0 38 -24.5 55t-77.5 17h-92v-143z" />
    <glyph glyph-name="macron" unicode="&#xaf;" 
d="M-31 627v68h302v-68h-302z" />
    <glyph glyph-name="degree" unicode="&#xb0;" horiz-adv-x="400" 
d="M57 599q0 59 42 101t101 42t101 -42t42 -101t-42 -101t-101 -42t-101 42t-42 101zM107 599q0 -38 27.5 -65.5t65.5 -27.5t65.5 27.5t27.5 65.5t-27.5 65.5t-65.5 27.5t-65.5 -27.5t-27.5 -65.5z" />
    <glyph glyph-name="plusminus" unicode="&#xb1;" horiz-adv-x="600" 
d="M263 345v161h74v-161h216v-74h-216v-161h-74v161h-216v74h216zM47 0v74h506v-74h-506z" />
    <glyph glyph-name="two.superior" unicode="&#xb2;" horiz-adv-x="337" 
d="M103 611h-74q1 60 39 95.5t99 35.5q55 0 93.5 -29t38.5 -81q0 -39 -43 -103l-110 -164h146v-68h-275l165 237q43 61 43 95q0 18 -16.5 31.5t-36.5 13.5q-64 0 -69 -63z" />
    <glyph glyph-name="three.superior" unicode="&#xb3;" horiz-adv-x="337" 
d="M48 510l135 176h-154v56h270l-130 -165q59 0 99.5 -37t40.5 -99t-46 -103t-110 -41q-51 0 -84 15.5t-63 61.5l50 37q29 -52 92 -52q35 0 64 22t29 55q0 39 -28 65t-71 26q-49 0 -83 -29z" />
    <glyph glyph-name="acute" unicode="&#xb4;" 
d="M63 602l81 132h121v-8l-131 -124h-71z" />
    <glyph glyph-name="mu" unicode="&#xb5;" horiz-adv-x="574" 
d="M415 0v61h-2q-20 -34 -59 -53.5t-84 -19.5q-80 0 -109 48h-2v-256h-90v741h90v-303q0 -64 29 -105t92 -41t99 41t36 115v293h90v-521h-90z" />
    <glyph glyph-name="paragraph" unicode="&#xb6;" horiz-adv-x="600" 
d="M426 -181v879h-119v-879h-74v567q-94 0 -153.5 52.5t-59.5 131.5q0 96 61 143t170 47h249v-941h-74z" />
    <glyph glyph-name="periodcentered" unicode="&#xb7;" horiz-adv-x="260" 
d="M64 323q0 27 19.5 46.5t46.5 19.5t46.5 -19.5t19.5 -46.5t-19.5 -46.5t-46.5 -19.5t-46.5 19.5t-19.5 46.5z" />
    <glyph glyph-name="cedilla" unicode="&#xb8;" 
d="M29 -196l-26 48q51 12 82 41t50 81l87 -31q-27 -66 -73 -98t-120 -41z" />
    <glyph glyph-name="one.superior" unicode="&#xb9;" horiz-adv-x="264" 
d="M24 594v68l160 80v-445h-74v347z" />
    <glyph glyph-name="ordmasculine" unicode="&#xba;" horiz-adv-x="444" 
d="M34 576q0 68 53 117t135 49t135 -49t53 -117q0 -69 -52 -116.5t-136 -47.5t-136 47.5t-52 116.5zM108 575q0 -44 32.5 -75.5t81.5 -31.5t81.5 31.5t32.5 75.5q0 45 -33.5 75t-80.5 30q-46 0 -80 -30.5t-34 -74.5z" />
    <glyph glyph-name="guillemotright" unicode="&#xbb;" horiz-adv-x="520" 
d="M373 276l-112 192h84l107 -192l-107 -192h-84zM171 276l-112 192h84l107 -192l-107 -192h-84z" />
    <glyph glyph-name="onequarter" unicode="&#xbc;" horiz-adv-x="778" 
d="M602 161v145h-2l-105 -145h107zM602 0v105h-191v28l241 312h18v-284h48v-56h-48v-105h-68zM114 -8l418 750h79l-418 -750h-79zM39 594v68l160 80v-445h-74v347z" />
    <glyph glyph-name="onehalf" unicode="&#xbd;" horiz-adv-x="778" 
d="M88 -8l418 750h79l-418 -750h-79zM522 314h-74q1 60 39 95.5t99 35.5q55 0 93.5 -29t38.5 -81q0 -39 -43 -103l-110 -164h146v-68h-275l165 237q43 61 43 95q0 18 -16.5 31.5t-36.5 13.5q-64 0 -69 -63zM24 594v68l160 80v-445h-74v347z" />
    <glyph glyph-name="threequarters" unicode="&#xbe;" horiz-adv-x="778" 
d="M602 161v145h-2l-105 -145h107zM602 0v105h-191v28l241 312h18v-284h48v-56h-48v-105h-68zM149 -8l418 750h79l-418 -750h-79zM66 510l135 176h-154v56h270l-130 -165q59 0 99.5 -37t40.5 -99t-46 -103t-110 -41q-51 0 -84 15.5t-63 61.5l50 37q29 -52 92 -52q35 0 64 22
t29 55q0 39 -28 65t-71 26q-49 0 -83 -29z" />
    <glyph glyph-name="questiondown" unicode="&#xbf;" horiz-adv-x="520" 
d="M257 357h90q0 -101 -19.5 -152t-75.5 -95l-54 -42q-26 -21 -37 -41t-11 -51q0 -47 30.5 -79.5t76.5 -32.5q56 0 84.5 35.5t28.5 89.5h96q-6 -95 -61.5 -152t-149.5 -57q-90 0 -145.5 58.5t-55.5 141.5q0 45 16 79t61 69l59 46q42 33 54.5 64t12.5 119zM236 482
q0 27 19.5 46.5t46.5 19.5t46.5 -19.5t19.5 -46.5t-19.5 -46.5t-46.5 -19.5t-46.5 19.5t-19.5 46.5z" />
    <glyph glyph-name="Agrave" unicode="&#xc0;" horiz-adv-x="740" 
d="M616 0l-69 177h-354l-69 -177h-105l309 760h84l309 -760h-105zM514 261l-144 373l-144 -373h288zM356 797l-131 124v8h121l81 -132h-71z" />
    <glyph glyph-name="Aacute" unicode="&#xc1;" horiz-adv-x="740" 
d="M616 0l-69 177h-354l-69 -177h-105l309 760h84l309 -760h-105zM514 261l-144 373l-144 -373h288zM313 797l81 132h121v-8l-131 -124h-71z" />
    <glyph glyph-name="Acircumflex" unicode="&#xc2;" horiz-adv-x="740" 
d="M616 0l-69 177h-354l-69 -177h-105l309 760h84l309 -760h-105zM514 261l-144 373l-144 -373h288zM446 797l-76 76l-76 -76h-74l96 132h108l96 -132h-74z" />
    <glyph glyph-name="Atilde" unicode="&#xc3;" horiz-adv-x="740" 
d="M616 0l-69 177h-354l-69 -177h-105l309 760h84l309 -760h-105zM514 261l-144 373l-144 -373h288zM258 806h-41q4 111 82 111q31 0 81 -22.5t61 -22.5q13 0 25.5 11t15.5 32h41q-4 -111 -82 -111q-31 0 -81 22.5t-61 22.5q-13 0 -25.5 -11t-15.5 -32z" />
    <glyph glyph-name="Adieresis" unicode="&#xc4;" horiz-adv-x="740" 
d="M616 0l-69 177h-354l-69 -177h-105l309 760h84l309 -760h-105zM514 261l-144 373l-144 -373h288zM400 870q0 26 18.5 44.5t44.5 18.5t44.5 -18.5t18.5 -44.5t-18.5 -44.5t-44.5 -18.5t-44.5 18.5t-18.5 44.5zM214 870q0 26 18.5 44.5t44.5 18.5t44.5 -18.5t18.5 -44.5
t-18.5 -44.5t-44.5 -18.5t-44.5 18.5t-18.5 44.5z" />
    <glyph glyph-name="Aring" unicode="&#xc5;" horiz-adv-x="740" 
d="M616 0l-69 177h-354l-69 -177h-105l309 760h84l309 -760h-105zM514 261l-144 373l-144 -373h288zM277 872q0 38 27.5 65.5t65.5 27.5t65.5 -27.5t27.5 -65.5t-27.5 -65.5t-65.5 -27.5t-65.5 27.5t-27.5 65.5zM319 872q0 -21 15 -36t36 -15t36 15t15 36t-15 36t-36 15
t-36 -15t-15 -36z" />
    <glyph glyph-name="AE" unicode="&#xc6;" horiz-adv-x="963" 
d="M527 0v177h-299l-101 -177h-108l446 760h448v-90h-290v-241h290v-90h-290v-249h290v-90h-386zM527 261v431h-2l-249 -431h251z" />
    <glyph glyph-name="Ccedilla" unicode="&#xc7;" horiz-adv-x="741" 
d="M714 675l-65 -71q-86 78 -196 78q-122 0 -211.5 -86.5t-89.5 -215.5t90.5 -215.5t210.5 -86.5q117 0 203 81l61 -69q-51 -47 -122 -74.5t-142 -27.5q-93 0 -171 34.5t-127.5 91t-77 125.5t-27.5 141t27.5 141t77 125.5t127.5 91t171 34.5q74 0 144 -27t117 -70zM332 -196
l-26 48q51 12 82 41t50 81l87 -31q-27 -66 -73 -98t-120 -41z" />
    <glyph glyph-name="Egrave" unicode="&#xc8;" horiz-adv-x="519" 
d="M76 0v760h393v-90h-297v-241h297v-90h-297v-249h297v-90h-393zM264 797l-131 124v8h121l81 -132h-71z" />
    <glyph glyph-name="Eacute" unicode="&#xc9;" horiz-adv-x="519" 
d="M76 0v760h393v-90h-297v-241h297v-90h-297v-249h297v-90h-393zM221 797l81 132h121v-8l-131 -124h-71z" />
    <glyph glyph-name="Ecircumflex" unicode="&#xca;" horiz-adv-x="519" 
d="M76 0v760h393v-90h-297v-241h297v-90h-297v-249h297v-90h-393zM354 797l-76 76l-76 -76h-74l96 132h108l96 -132h-74z" />
    <glyph glyph-name="Edieresis" unicode="&#xcb;" horiz-adv-x="519" 
d="M76 0v760h393v-90h-297v-241h297v-90h-297v-249h297v-90h-393zM308 870q0 26 18.5 44.5t44.5 18.5t44.5 -18.5t18.5 -44.5t-18.5 -44.5t-44.5 -18.5t-44.5 18.5t-18.5 44.5zM122 870q0 26 18.5 44.5t44.5 18.5t44.5 -18.5t18.5 -44.5t-18.5 -44.5t-44.5 -18.5t-44.5 18.5
t-18.5 44.5z" />
    <glyph glyph-name="Igrave" unicode="&#xcc;" 
d="M72 0v760h96v-760h-96zM106 797l-131 124v8h121l81 -132h-71z" />
    <glyph glyph-name="Iacute" unicode="&#xcd;" 
d="M72 0v760h96v-760h-96zM63 797l81 132h121v-8l-131 -124h-71z" />
    <glyph glyph-name="Icircumflex" unicode="&#xce;" 
d="M72 0v760h96v-760h-96zM196 797l-76 76l-76 -76h-74l96 132h108l96 -132h-74z" />
    <glyph glyph-name="Idieresis" unicode="&#xcf;" 
d="M72 0v760h96v-760h-96zM150 870q0 26 18.5 44.5t44.5 18.5t44.5 -18.5t18.5 -44.5t-18.5 -44.5t-44.5 -18.5t-44.5 18.5t-18.5 44.5zM-36 870q0 26 18.5 44.5t44.5 18.5t44.5 -18.5t18.5 -44.5t-18.5 -44.5t-44.5 -18.5t-44.5 18.5t-18.5 44.5z" />
    <glyph glyph-name="Eth" unicode="&#xd0;" horiz-adv-x="741" 
d="M76 429v331h250q144 0 254.5 -109t110.5 -268q0 -162 -113 -272.5t-276 -110.5h-226v345h-56v84h56zM172 90h129q126 0 207 85.5t81 212.5q0 121 -85.5 201.5t-210.5 80.5h-121v-241h172v-84h-172v-255z" />
    <glyph glyph-name="Ntilde" unicode="&#xd1;" horiz-adv-x="740" 
d="M572 172v588h96v-760h-90l-408 588h-2v-588h-96v760h90l408 -588h2zM258 806h-41q4 111 82 111q31 0 81 -22.5t61 -22.5q13 0 25.5 11t15.5 32h41q-4 -111 -82 -111q-31 0 -81 22.5t-61 22.5q-13 0 -25.5 -11t-15.5 -32z" />
    <glyph glyph-name="Ograve" unicode="&#xd2;" horiz-adv-x="906" 
d="M50 380q0 72 27.5 141t77 125.5t127.5 91t171 34.5t171 -34.5t127.5 -91t77 -125.5t27.5 -141t-27.5 -141t-77 -125.5t-127.5 -91t-171 -34.5t-171 34.5t-127.5 91t-77 125.5t-27.5 141zM152 380q0 -131 90 -216.5t211 -85.5t211 85.5t90 216.5t-90 216.5t-211 85.5
t-211 -85.5t-90 -216.5zM439 797l-131 124v8h121l81 -132h-71z" />
    <glyph glyph-name="Oacute" unicode="&#xd3;" horiz-adv-x="906" 
d="M50 380q0 72 27.5 141t77 125.5t127.5 91t171 34.5t171 -34.5t127.5 -91t77 -125.5t27.5 -141t-27.5 -141t-77 -125.5t-127.5 -91t-171 -34.5t-171 34.5t-127.5 91t-77 125.5t-27.5 141zM152 380q0 -131 90 -216.5t211 -85.5t211 85.5t90 216.5t-90 216.5t-211 85.5
t-211 -85.5t-90 -216.5zM396 797l81 132h121v-8l-131 -124h-71z" />
    <glyph glyph-name="Ocircumflex" unicode="&#xd4;" horiz-adv-x="906" 
d="M50 380q0 72 27.5 141t77 125.5t127.5 91t171 34.5t171 -34.5t127.5 -91t77 -125.5t27.5 -141t-27.5 -141t-77 -125.5t-127.5 -91t-171 -34.5t-171 34.5t-127.5 91t-77 125.5t-27.5 141zM152 380q0 -131 90 -216.5t211 -85.5t211 85.5t90 216.5t-90 216.5t-211 85.5
t-211 -85.5t-90 -216.5zM529 797l-76 76l-76 -76h-74l96 132h108l96 -132h-74z" />
    <glyph glyph-name="Otilde" unicode="&#xd5;" horiz-adv-x="906" 
d="M50 380q0 72 27.5 141t77 125.5t127.5 91t171 34.5t171 -34.5t127.5 -91t77 -125.5t27.5 -141t-27.5 -141t-77 -125.5t-127.5 -91t-171 -34.5t-171 34.5t-127.5 91t-77 125.5t-27.5 141zM152 380q0 -131 90 -216.5t211 -85.5t211 85.5t90 216.5t-90 216.5t-211 85.5
t-211 -85.5t-90 -216.5zM341 806h-41q4 111 82 111q31 0 81 -22.5t61 -22.5q13 0 25.5 11t15.5 32h41q-4 -111 -82 -111q-31 0 -81 22.5t-61 22.5q-13 0 -25.5 -11t-15.5 -32z" />
    <glyph glyph-name="Odieresis" unicode="&#xd6;" horiz-adv-x="906" 
d="M50 380q0 72 27.5 141t77 125.5t127.5 91t171 34.5t171 -34.5t127.5 -91t77 -125.5t27.5 -141t-27.5 -141t-77 -125.5t-127.5 -91t-171 -34.5t-171 34.5t-127.5 91t-77 125.5t-27.5 141zM152 380q0 -131 90 -216.5t211 -85.5t211 85.5t90 216.5t-90 216.5t-211 85.5
t-211 -85.5t-90 -216.5zM483 870q0 26 18.5 44.5t44.5 18.5t44.5 -18.5t18.5 -44.5t-18.5 -44.5t-44.5 -18.5t-44.5 18.5t-18.5 44.5zM297 870q0 26 18.5 44.5t44.5 18.5t44.5 -18.5t18.5 -44.5t-18.5 -44.5t-44.5 -18.5t-44.5 18.5t-18.5 44.5z" />
    <glyph glyph-name="multiply" unicode="&#xd7;" horiz-adv-x="600" 
d="M300 304l178 178l51 -51l-178 -178l178 -178l-51 -51l-178 178l-178 -178l-51 51l178 178l-178 178l51 51z" />
    <glyph glyph-name="Oslash" unicode="&#xd8;" horiz-adv-x="906" 
d="M227 179l410 441q-82 62 -184 62q-121 0 -211 -85.5t-90 -216.5q0 -115 75 -201zM679 581l-410 -441q84 -62 184 -62q121 0 211 85.5t90 216.5q0 116 -75 201zM69 9l92 99q-53 55 -82 126.5t-29 145.5q0 72 27.5 141t77 125.5t127.5 91t171 34.5q146 0 249 -82l93 100
l42 -39l-92 -99q111 -114 111 -272q0 -72 -27.5 -141t-77 -125.5t-127.5 -91t-171 -34.5q-146 0 -250 81l-92 -99z" />
    <glyph glyph-name="Ugrave" unicode="&#xd9;" horiz-adv-x="740" 
d="M72 276v484h96v-456q0 -98 53 -162t149 -64t149 64t53 162v456h96v-484q0 -124 -84.5 -206t-215.5 -82q-128 0 -212 82t-84 206zM356 797l-131 124v8h121l81 -132h-71z" />
    <glyph glyph-name="Uacute" unicode="&#xda;" horiz-adv-x="740" 
d="M72 276v484h96v-456q0 -98 53 -162t149 -64t149 64t53 162v456h96v-484q0 -124 -84.5 -206t-215.5 -82q-128 0 -212 82t-84 206zM313 797l81 132h121v-8l-131 -124h-71z" />
    <glyph glyph-name="Ucircumflex" unicode="&#xdb;" horiz-adv-x="740" 
d="M72 276v484h96v-456q0 -98 53 -162t149 -64t149 64t53 162v456h96v-484q0 -124 -84.5 -206t-215.5 -82q-128 0 -212 82t-84 206zM446 797l-76 76l-76 -76h-74l96 132h108l96 -132h-74z" />
    <glyph glyph-name="Udieresis" unicode="&#xdc;" horiz-adv-x="740" 
d="M72 276v484h96v-456q0 -98 53 -162t149 -64t149 64t53 162v456h96v-484q0 -124 -84.5 -206t-215.5 -82q-128 0 -212 82t-84 206zM400 870q0 26 18.5 44.5t44.5 18.5t44.5 -18.5t18.5 -44.5t-18.5 -44.5t-44.5 -18.5t-44.5 18.5t-18.5 44.5zM214 870q0 26 18.5 44.5
t44.5 18.5t44.5 -18.5t18.5 -44.5t-18.5 -44.5t-44.5 -18.5t-44.5 18.5t-18.5 44.5z" />
    <glyph glyph-name="Yacute" unicode="&#xdd;" horiz-adv-x="630" 
d="M315 404l193 356h112l-257 -457v-303h-96v303l-257 457h112zM258 797l81 132h121v-8l-131 -124h-71z" />
    <glyph glyph-name="Thorn" unicode="&#xde;" horiz-adv-x="574" 
d="M76 0v760h96v-111h114q116 0 186.5 -75t70.5 -176t-70.5 -175.5t-186.5 -74.5h-114v-148h-96zM172 232h94q87 0 134 42t47 124t-47 124.5t-134 42.5h-94v-333z" />
    <glyph glyph-name="germandbls" unicode="&#xdf;" horiz-adv-x="630" 
d="M245 10l22 81q32 -18 77 -18q58 0 101.5 42.5t43.5 113.5t-50 114.5t-128 43.5h-22v79h24q42 0 69.5 30t27.5 79q0 50 -30 78.5t-81 28.5q-111 0 -111 -138v-544h-90v442h-72v79h72v45q0 86 54 143t152 57q91 0 143.5 -58.5t52.5 -123.5q0 -99 -79 -141v-2
q73 -10 118.5 -66t45.5 -135q0 -109 -68 -177.5t-177 -68.5q-51 0 -95 16z" />
    <glyph glyph-name="agrave" unicode="&#xe0;" horiz-adv-x="574" 
d="M419 295v54q0 58 -45.5 81.5t-110.5 23.5q-71 0 -144 -36l-39 75q96 40 188 40q102 0 171.5 -44.5t69.5 -132.5v-356h-84v56q-65 -68 -166 -68q-98 0 -162.5 51t-64.5 136q0 75 61 127t165 52q95 0 161 -59zM422 171q0 44 -35.5 74t-111.5 30t-111.5 -30t-35.5 -74
t35.5 -74t111.5 -30t111.5 30t35.5 74zM279 602l-131 124v8h121l81 -132h-71z" />
    <glyph glyph-name="aacute" unicode="&#xe1;" horiz-adv-x="574" 
d="M419 295v54q0 58 -45.5 81.5t-110.5 23.5q-71 0 -144 -36l-39 75q96 40 188 40q102 0 171.5 -44.5t69.5 -132.5v-356h-84v56q-65 -68 -166 -68q-98 0 -162.5 51t-64.5 136q0 75 61 127t165 52q95 0 161 -59zM422 171q0 44 -35.5 74t-111.5 30t-111.5 -30t-35.5 -74
t35.5 -74t111.5 -30t111.5 30t35.5 74zM236 602l81 132h121v-8l-131 -124h-71z" />
    <glyph glyph-name="acircumflex" unicode="&#xe2;" horiz-adv-x="574" 
d="M419 295v54q0 58 -45.5 81.5t-110.5 23.5q-71 0 -144 -36l-39 75q96 40 188 40q102 0 171.5 -44.5t69.5 -132.5v-356h-84v56q-65 -68 -166 -68q-98 0 -162.5 51t-64.5 136q0 75 61 127t165 52q95 0 161 -59zM422 171q0 44 -35.5 74t-111.5 30t-111.5 -30t-35.5 -74
t35.5 -74t111.5 -30t111.5 30t35.5 74zM369 602l-76 76l-76 -76h-74l96 132h108l96 -132h-74z" />
    <glyph glyph-name="atilde" unicode="&#xe3;" horiz-adv-x="574" 
d="M419 295v54q0 58 -45.5 81.5t-110.5 23.5q-71 0 -144 -36l-39 75q96 40 188 40q102 0 171.5 -44.5t69.5 -132.5v-356h-84v56q-65 -68 -166 -68q-98 0 -162.5 51t-64.5 136q0 75 61 127t165 52q95 0 161 -59zM422 171q0 44 -35.5 74t-111.5 30t-111.5 -30t-35.5 -74
t35.5 -74t111.5 -30t111.5 30t35.5 74zM181 611h-41q4 111 82 111q31 0 81 -22.5t61 -22.5q13 0 25.5 11t15.5 32h41q-4 -111 -82 -111q-31 0 -81 22.5t-61 22.5q-13 0 -25.5 -11t-15.5 -32z" />
    <glyph glyph-name="adieresis" unicode="&#xe4;" horiz-adv-x="574" 
d="M419 295v54q0 58 -45.5 81.5t-110.5 23.5q-71 0 -144 -36l-39 75q96 40 188 40q102 0 171.5 -44.5t69.5 -132.5v-356h-84v56q-65 -68 -166 -68q-98 0 -162.5 51t-64.5 136q0 75 61 127t165 52q95 0 161 -59zM422 171q0 44 -35.5 74t-111.5 30t-111.5 -30t-35.5 -74
t35.5 -74t111.5 -30t111.5 30t35.5 74zM323 665q0 26 18.5 44.5t44.5 18.5t44.5 -18.5t18.5 -44.5t-18.5 -44.5t-44.5 -18.5t-44.5 18.5t-18.5 44.5zM137 665q0 26 18.5 44.5t44.5 18.5t44.5 -18.5t18.5 -44.5t-18.5 -44.5t-44.5 -18.5t-44.5 18.5t-18.5 44.5z" />
    <glyph glyph-name="aring" unicode="&#xe5;" horiz-adv-x="574" 
d="M419 295v54q0 58 -45.5 81.5t-110.5 23.5q-71 0 -144 -36l-39 75q96 40 188 40q102 0 171.5 -44.5t69.5 -132.5v-356h-84v56q-65 -68 -166 -68q-98 0 -162.5 51t-64.5 136q0 75 61 127t165 52q95 0 161 -59zM422 171q0 44 -35.5 74t-111.5 30t-111.5 -30t-35.5 -74
t35.5 -74t111.5 -30t111.5 30t35.5 74zM200 673q0 38 27.5 65.5t65.5 27.5t65.5 -27.5t27.5 -65.5t-27.5 -65.5t-65.5 -27.5t-65.5 27.5t-27.5 65.5zM242 673q0 -21 15 -36t36 -15t36 15t15 36t-15 36t-36 15t-36 -15t-15 -36z" />
    <glyph glyph-name="ae" unicode="&#xe6;" horiz-adv-x="963" 
d="M425 171q0 44 -35.5 74t-111.5 30t-111.5 -30t-35.5 -74t35.5 -74t111.5 -30t111.5 30t35.5 74zM422 295v54q0 58 -45.5 81.5t-110.5 23.5q-70 0 -144 -36l-39 75q96 40 188 40q158 0 218 -103q24 44 76.5 73.5t107.5 29.5q114 0 184.5 -81.5t70.5 -194.5v-31h-413
q3 -66 52 -110t121 -44q55 0 89.5 17.5t64.5 54.5l67 -54q-93 -102 -224 -102q-67 0 -123 28t-81 72q-72 -100 -219 -100q-98 0 -162.5 51t-64.5 136q0 75 61 127t165 52q95 0 161 -59zM515 300h317q-6 67 -51 108t-107 41q-59 0 -104 -37.5t-55 -111.5z" />
    <glyph glyph-name="ccedilla" unicode="&#xe7;" horiz-adv-x="519" 
d="M495 468l-61 -71q-53 52 -121 52q-71 0 -121.5 -51t-50.5 -142q0 -79 51.5 -131.5t129.5 -52.5q59 0 116 53l53 -66q-70 -71 -180 -71q-117 0 -191.5 80t-74.5 191q0 113 77.5 193.5t189.5 80.5q108 0 183 -65zM203 -196l-26 48q51 12 82 41t50 81l87 -31
q-27 -66 -73 -98t-120 -41z" />
    <glyph glyph-name="egrave" unicode="&#xe8;" horiz-adv-x="630" 
d="M495 156l69 -55q-101 -113 -235 -113q-132 0 -208 81t-76 192q0 114 75 193t194 79q121 0 197 -85t76 -222h-446q11 -68 61.5 -111t125.5 -43q95 0 167 84zM141 300h344q-7 65 -55 107t-117 42q-76 0 -120 -44.5t-52 -104.5zM307 602l-131 124v8h121l81 -132h-71z" />
    <glyph glyph-name="eacute" unicode="&#xe9;" horiz-adv-x="630" 
d="M495 156l69 -55q-101 -113 -235 -113q-132 0 -208 81t-76 192q0 114 75 193t194 79q121 0 197 -85t76 -222h-446q11 -68 61.5 -111t125.5 -43q95 0 167 84zM141 300h344q-7 65 -55 107t-117 42q-76 0 -120 -44.5t-52 -104.5zM264 602l81 132h121v-8l-131 -124h-71z" />
    <glyph glyph-name="ecircumflex" unicode="&#xea;" horiz-adv-x="630" 
d="M495 156l69 -55q-101 -113 -235 -113q-132 0 -208 81t-76 192q0 114 75 193t194 79q121 0 197 -85t76 -222h-446q11 -68 61.5 -111t125.5 -43q95 0 167 84zM141 300h344q-7 65 -55 107t-117 42q-76 0 -120 -44.5t-52 -104.5zM397 602l-76 76l-76 -76h-74l96 132h108
l96 -132h-74z" />
    <glyph glyph-name="edieresis" unicode="&#xeb;" horiz-adv-x="630" 
d="M495 156l69 -55q-101 -113 -235 -113q-132 0 -208 81t-76 192q0 114 75 193t194 79q121 0 197 -85t76 -222h-446q11 -68 61.5 -111t125.5 -43q95 0 167 84zM141 300h344q-7 65 -55 107t-117 42q-76 0 -120 -44.5t-52 -104.5zM351 665q0 26 18.5 44.5t44.5 18.5
t44.5 -18.5t18.5 -44.5t-18.5 -44.5t-44.5 -18.5t-44.5 18.5t-18.5 44.5zM165 665q0 26 18.5 44.5t44.5 18.5t44.5 -18.5t18.5 -44.5t-18.5 -44.5t-44.5 -18.5t-44.5 18.5t-18.5 44.5z" />
    <glyph glyph-name="igrave" unicode="&#xec;" 
d="M75 0v521h90v-521h-90zM106 602l-131 124v8h121l81 -132h-71z" />
    <glyph glyph-name="iacute" unicode="&#xed;" 
d="M75 0v521h90v-521h-90zM63 602l81 132h121v-8l-131 -124h-71z" />
    <glyph glyph-name="icircumflex" unicode="&#xee;" 
d="M75 0v521h90v-521h-90zM196 602l-76 76l-76 -76h-74l96 132h108l96 -132h-74z" />
    <glyph glyph-name="idieresis" unicode="&#xef;" 
d="M75 0v521h90v-521h-90zM150 665q0 26 18.5 44.5t44.5 18.5t44.5 -18.5t18.5 -44.5t-18.5 -44.5t-44.5 -18.5t-44.5 18.5t-18.5 44.5zM-36 665q0 26 18.5 44.5t44.5 18.5t44.5 -18.5t18.5 -44.5t-18.5 -44.5t-44.5 -18.5t-44.5 18.5t-18.5 44.5z" />
    <glyph glyph-name="eth" unicode="&#xf0;" horiz-adv-x="684" 
d="M342 449q-76 0 -131 -54.5t-55 -134.5q0 -75 55.5 -131.5t130.5 -56.5t130.5 56.5t55.5 131.5q0 80 -55 134.5t-131 54.5zM234 597l-54 41l120 52q-61 30 -123 40l78 56q78 -20 139 -56l130 56l53 -42l-125 -53q172 -139 172 -391q0 -151 -78 -231.5t-204 -80.5
q-125 0 -203.5 79t-78.5 193q0 112 80.5 192.5t201.5 80.5q99 0 160 -67l2 2q-28 106 -140 185z" />
    <glyph glyph-name="ntilde" unicode="&#xf1;" horiz-adv-x="574" 
d="M415 0v303q0 64 -29 105t-92 41t-99 -41t-36 -115v-293h-90v521h90v-61h2q20 34 59 53.5t84 19.5q84 0 142.5 -48.5t58.5 -147.5v-337h-90zM175 611h-41q4 111 82 111q31 0 81 -22.5t61 -22.5q13 0 25.5 11t15.5 32h41q-4 -111 -82 -111q-31 0 -81 22.5t-61 22.5
q-13 0 -25.5 -11t-15.5 -32z" />
    <glyph glyph-name="ograve" unicode="&#xf2;" horiz-adv-x="684" 
d="M60 260q0 112 80.5 192.5t201.5 80.5t201.5 -80.5t80.5 -192.5q0 -114 -78.5 -193t-203.5 -79t-203.5 79t-78.5 193zM342 449q-76 0 -131 -54.5t-55 -134.5q0 -75 55.5 -131.5t130.5 -56.5t130.5 56.5t55.5 131.5q0 80 -55 134.5t-131 54.5zM328 602l-131 124v8h121
l81 -132h-71z" />
    <glyph glyph-name="oacute" unicode="&#xf3;" horiz-adv-x="684" 
d="M60 260q0 112 80.5 192.5t201.5 80.5t201.5 -80.5t80.5 -192.5q0 -114 -78.5 -193t-203.5 -79t-203.5 79t-78.5 193zM342 449q-76 0 -131 -54.5t-55 -134.5q0 -75 55.5 -131.5t130.5 -56.5t130.5 56.5t55.5 131.5q0 80 -55 134.5t-131 54.5zM285 602l81 132h121v-8
l-131 -124h-71z" />
    <glyph glyph-name="ocircumflex" unicode="&#xf4;" horiz-adv-x="684" 
d="M60 260q0 112 80.5 192.5t201.5 80.5t201.5 -80.5t80.5 -192.5q0 -114 -78.5 -193t-203.5 -79t-203.5 79t-78.5 193zM342 449q-76 0 -131 -54.5t-55 -134.5q0 -75 55.5 -131.5t130.5 -56.5t130.5 56.5t55.5 131.5q0 80 -55 134.5t-131 54.5zM418 602l-76 76l-76 -76h-74
l96 132h108l96 -132h-74z" />
    <glyph glyph-name="otilde" unicode="&#xf5;" horiz-adv-x="684" 
d="M60 260q0 112 80.5 192.5t201.5 80.5t201.5 -80.5t80.5 -192.5q0 -114 -78.5 -193t-203.5 -79t-203.5 79t-78.5 193zM342 449q-76 0 -131 -54.5t-55 -134.5q0 -75 55.5 -131.5t130.5 -56.5t130.5 56.5t55.5 131.5q0 80 -55 134.5t-131 54.5zM230 611h-41q4 111 82 111
q31 0 81 -22.5t61 -22.5q13 0 25.5 11t15.5 32h41q-4 -111 -82 -111q-31 0 -81 22.5t-61 22.5q-13 0 -25.5 -11t-15.5 -32z" />
    <glyph glyph-name="odieresis" unicode="&#xf6;" horiz-adv-x="684" 
d="M60 260q0 112 80.5 192.5t201.5 80.5t201.5 -80.5t80.5 -192.5q0 -114 -78.5 -193t-203.5 -79t-203.5 79t-78.5 193zM342 449q-76 0 -131 -54.5t-55 -134.5q0 -75 55.5 -131.5t130.5 -56.5t130.5 56.5t55.5 131.5q0 80 -55 134.5t-131 54.5zM372 665q0 26 18.5 44.5
t44.5 18.5t44.5 -18.5t18.5 -44.5t-18.5 -44.5t-44.5 -18.5t-44.5 18.5t-18.5 44.5zM186 665q0 26 18.5 44.5t44.5 18.5t44.5 -18.5t18.5 -44.5t-18.5 -44.5t-44.5 -18.5t-44.5 18.5t-18.5 44.5z" />
    <glyph glyph-name="divide" unicode="&#xf7;" horiz-adv-x="600" 
d="M47 216v74h506v-74h-506zM231 459q0 29 20.5 49t48.5 20t48.5 -20t20.5 -49t-20.5 -49t-48.5 -20t-48.5 20t-20.5 49zM231 47q0 29 20.5 49t48.5 20t48.5 -20t20.5 -49t-20.5 -49t-48.5 -20t-48.5 20t-20.5 49z" />
    <glyph glyph-name="oslash" unicode="&#xf8;" horiz-adv-x="684" 
d="M192 153l267 254q-51 42 -117 42q-76 0 -131 -54.5t-55 -134.5q0 -60 36 -107zM494 370l-267 -255q50 -43 115 -43q75 0 130.5 56.5t55.5 131.5q0 60 -34 110zM52 20l70 66q-62 71 -62 174q0 112 80.5 192.5t201.5 80.5q105 0 183 -64l72 69l35 -37l-71 -67
q63 -76 63 -174q0 -114 -78.5 -193t-203.5 -79q-108 0 -184 62l-71 -67z" />
    <glyph glyph-name="ugrave" unicode="&#xf9;" horiz-adv-x="574" 
d="M415 0v61h-2q-20 -34 -59 -53.5t-84 -19.5q-84 0 -142.5 48.5t-58.5 147.5v337h90v-303q0 -64 29 -105t92 -41t99 41t36 115v293h90v-521h-90zM273 602l-131 124v8h121l81 -132h-71z" />
    <glyph glyph-name="uacute" unicode="&#xfa;" horiz-adv-x="574" 
d="M415 0v61h-2q-20 -34 -59 -53.5t-84 -19.5q-84 0 -142.5 48.5t-58.5 147.5v337h90v-303q0 -64 29 -105t92 -41t99 41t36 115v293h90v-521h-90zM230 602l81 132h121v-8l-131 -124h-71z" />
    <glyph glyph-name="ucircumflex" unicode="&#xfb;" horiz-adv-x="574" 
d="M415 0v61h-2q-20 -34 -59 -53.5t-84 -19.5q-84 0 -142.5 48.5t-58.5 147.5v337h90v-303q0 -64 29 -105t92 -41t99 41t36 115v293h90v-521h-90zM363 602l-76 76l-76 -76h-74l96 132h108l96 -132h-74z" />
    <glyph glyph-name="udieresis" unicode="&#xfc;" horiz-adv-x="574" 
d="M415 0v61h-2q-20 -34 -59 -53.5t-84 -19.5q-84 0 -142.5 48.5t-58.5 147.5v337h90v-303q0 -64 29 -105t92 -41t99 41t36 115v293h90v-521h-90zM317 665q0 26 18.5 44.5t44.5 18.5t44.5 -18.5t18.5 -44.5t-18.5 -44.5t-44.5 -18.5t-44.5 18.5t-18.5 44.5zM131 665
q0 26 18.5 44.5t44.5 18.5t44.5 -18.5t18.5 -44.5t-18.5 -44.5t-44.5 -18.5t-44.5 18.5t-18.5 44.5z" />
    <glyph glyph-name="yacute" unicode="&#xfd;" horiz-adv-x="574" 
d="M128 -220l97 228l-217 513h102l167 -402l169 402h96l-320 -741h-94zM230 602l81 132h121v-8l-131 -124h-71z" />
    <glyph glyph-name="thorn" unicode="&#xfe;" horiz-adv-x="684" 
d="M540 265q0 71 -52.5 127.5t-138.5 56.5q-74 0 -129 -55.5t-55 -133.5t55 -133t132 -55q75 0 131.5 53.5t56.5 139.5zM75 -220v980h90v-321h2q31 45 84.5 69.5t113.5 24.5q111 0 191 -77.5t80 -189.5q0 -120 -81.5 -199t-193.5 -79q-129 0 -194 92h-2v-300h-90z" />
    <glyph glyph-name="ydieresis" unicode="&#xff;" horiz-adv-x="574" 
d="M128 -220l97 228l-217 513h102l167 -402l169 402h96l-320 -741h-94zM317 665q0 26 18.5 44.5t44.5 18.5t44.5 -18.5t18.5 -44.5t-18.5 -44.5t-44.5 -18.5t-44.5 18.5t-18.5 44.5zM131 665q0 26 18.5 44.5t44.5 18.5t44.5 -18.5t18.5 -44.5t-18.5 -44.5t-44.5 -18.5
t-44.5 18.5t-18.5 44.5z" />
    <glyph glyph-name="dotlessi" unicode="&#x131;" 
d="M75 0v521h90v-521h-90z" />
    <glyph glyph-name="Lslash" unicode="&#x141;" horiz-adv-x="463" 
d="M172 466l124 124v-96l-124 -124v-280h267v-90h-363v274l-69 -69v96l69 69v390h96v-294z" />
    <glyph glyph-name="lslash" unicode="&#x142;" 
d="M153 483l85 85v-74l-85 -85v-246q0 -41 16.5 -60t41.5 -19h27v-84h-37q-65 0 -101.5 38.5t-36.5 117.5v163l-59 -59v74l59 59v367h90v-277z" />
    <glyph glyph-name="OE" unicode="&#x152;" horiz-adv-x="1019" 
d="M603 659v101h366v-90h-274v-251h274v-90h-274v-239h274v-90h-366v100h-2q-73 -112 -230 -112q-106 0 -183 57.5t-113 145t-36 189.5t36 189.5t113 145t183 57.5q157 0 230 -112zM605 380q0 59 -12.5 112t-39 98t-73.5 71.5t-109 26.5q-63 0 -110 -26.5t-73.5 -71.5
t-39.5 -98t-13 -112t13 -112t39.5 -98t73.5 -71.5t110 -26.5q62 0 109 26.5t73.5 71.5t39 98t12.5 112z" />
    <glyph glyph-name="oe" unicode="&#x153;" horiz-adv-x="1019" 
d="M475 259q0 76 -44.5 133t-124.5 57t-124.5 -57t-44.5 -133q0 -79 46 -133t123 -54t123 54t46 133zM559 300h323q-6 67 -51 108t-107 41q-60 0 -105.5 -36t-59.5 -113zM978 226h-419q6 -66 56.5 -110t122.5 -44q55 0 89.5 17.5t64.5 54.5l67 -54q-93 -102 -224 -102
q-147 0 -220 113q-32 -56 -86.5 -84.5t-122.5 -28.5q-120 0 -192.5 78t-72.5 190q0 69 28 130.5t90 104t147 42.5q136 0 212 -112q41 58 88 85t117 27q114 0 184.5 -81.5t70.5 -194.5v-31z" />
    <glyph glyph-name="Scaron" unicode="&#x160;" horiz-adv-x="574" 
d="M522 543h-90q-10 68 -48 106.5t-98 38.5q-73 0 -105 -37.5t-32 -85.5q0 -80 111 -121l96 -36q177 -66 177 -208q0 -93 -67.5 -152.5t-176.5 -59.5q-107 0 -173 57t-75 168h96q14 -141 157 -141q62 0 102.5 34.5t40.5 85.5q0 78 -118 124l-97 38q-169 66 -169 208
q0 95 68 152.5t166 57.5t162.5 -58.5t72.5 -170.5zM287 853l76 76h74l-96 -132h-108l-96 132h74z" />
    <glyph glyph-name="scaron" unicode="&#x161;" horiz-adv-x="463" 
d="M39 152h84q4 -40 34.5 -62.5t73.5 -22.5q55 0 79 23t24 52q0 26 -20.5 43t-71.5 31l-91 25q-106 29 -106 134q0 68 49.5 113t136.5 45q92 0 135.5 -47.5t43.5 -114.5h-84q-10 88 -97 88q-42 0 -68 -21.5t-26 -53.5q0 -46 58 -63l122 -35q59 -17 84 -50t25 -86
q0 -76 -56 -119t-133 -43q-90 0 -142 44.5t-54 119.5zM232 658l76 76h74l-96 -132h-108l-96 132h74z" />
    <glyph glyph-name="Ydieresis" unicode="&#x178;" horiz-adv-x="630" 
d="M315 404l193 356h112l-257 -457v-303h-96v303l-257 457h112zM345 870q0 26 18.5 44.5t44.5 18.5t44.5 -18.5t18.5 -44.5t-18.5 -44.5t-44.5 -18.5t-44.5 18.5t-18.5 44.5zM159 870q0 26 18.5 44.5t44.5 18.5t44.5 -18.5t18.5 -44.5t-18.5 -44.5t-44.5 -18.5t-44.5 18.5
t-18.5 44.5z" />
    <glyph glyph-name="Zcaron" unicode="&#x17d;" horiz-adv-x="630" 
d="M25 0l416 670h-379v90h543l-416 -670h396v-90h-560zM315 853l76 76h74l-96 -132h-108l-96 132h74z" />
    <glyph glyph-name="zcaron" unicode="&#x17e;" horiz-adv-x="463" 
d="M21 0l272 442h-244v79h393l-270 -442h257v-79h-408zM232 658l76 76h74l-96 -132h-108l-96 132h74z" />
    <glyph glyph-name="florin" unicode="&#x192;" horiz-adv-x="520" 
d="M110 367l6 50h97l23 186q10 77 46 108t111 31q13 0 29 -2l-10 -84q-12 2 -24 2q-56 0 -64 -66l-21 -175h98l-7 -50h-97l-54 -455q-8 -64 -39.5 -93.5t-97.5 -29.5q-32 0 -53 4l11 86q18 -6 28 -6q31 0 45 15.5t19 53.5l51 425h-97z" />
    <glyph glyph-name="circumflex" unicode="&#x2c6;" 
d="M196 602l-76 76l-76 -76h-74l96 132h108l96 -132h-74z" />
    <glyph glyph-name="caron" unicode="&#x2c7;" 
d="M120 658l76 76h74l-96 -132h-108l-96 132h74z" />
    <glyph glyph-name="uni02C9" unicode="&#x2c9;" 
d="M-31 627v68h302v-68h-302z" />
    <glyph glyph-name="breve" unicode="&#x2d8;" 
d="M-33 734h57q8 -32 35 -49q26 -15 61 -15q80 0 96 64h57q-2 -58 -41.5 -95t-111.5 -37t-111.5 37t-41.5 95z" />
    <glyph glyph-name="dotaccent" unicode="&#x2d9;" 
d="M57 665q0 26 18.5 44.5t44.5 18.5t44.5 -18.5t18.5 -44.5t-18.5 -44.5t-44.5 -18.5t-44.5 18.5t-18.5 44.5z" />
    <glyph glyph-name="ring" unicode="&#x2da;" 
d="M27 673q0 38 27.5 65.5t65.5 27.5t65.5 -27.5t27.5 -65.5t-27.5 -65.5t-65.5 -27.5t-65.5 27.5t-27.5 65.5zM69 673q0 -21 15 -36t36 -15t36 15t15 36t-15 36t-36 15t-36 -15t-15 -36z" />
    <glyph glyph-name="ogonek" unicode="&#x2db;" 
d="M68 0h84l-37 -58q-15 -25 -15 -43q0 -21 20 -21q12 0 24 10l20 -63q-39 -21 -76 -21q-36 0 -57 19t-21 52q0 45 29 85z" />
    <glyph glyph-name="tilde" unicode="&#x2dc;" 
d="M8 611h-41q4 111 82 111q31 0 81 -22.5t61 -22.5q13 0 25.5 11t15.5 32h41q-4 -111 -82 -111q-31 0 -81 22.5t-61 22.5q-13 0 -25.5 -11t-15.5 -32z" />
    <glyph glyph-name="hungarumlaut" unicode="&#x2dd;" 
d="M-33 602l81 132h121v-8l-131 -124h-71zM153 602l81 132h121v-8l-131 -124h-71z" />
    <glyph glyph-name="uni03A9" unicode="&#x3a9;" horiz-adv-x="667" 
d="M181 69v3q-54 56 -89 138.5t-35 181.5q0 151 79 246.5t201 95.5t197 -99t75 -237q0 -103 -36.5 -188.5t-89.5 -137.5v-3h139v-69h-228v51q56 43 94 129t38 200q0 70 -20.5 133t-65 106.5t-105.5 43.5q-88 0 -142 -81t-54 -204q0 -108 39 -197.5t93 -129.5v-51h-227v69
h137z" />
    <glyph glyph-name="uni03BC" unicode="&#x3bc;" horiz-adv-x="574" 
d="M415 0v61h-2q-20 -34 -59 -53.5t-84 -19.5q-80 0 -109 48h-2v-256h-90v741h90v-303q0 -64 29 -105t92 -41t99 41t36 115v293h90v-521h-90z" />
    <glyph glyph-name="pi" unicode="&#x3c0;" horiz-adv-x="544" 
d="M518 466h-74v-318q0 -92 14 -148h-78q-17 31 -17 142v324h-161q-4 -109 -23.5 -251.5t-44.5 -214.5h-79q26 82 45 220t22 246q-71 0 -101 -11l-12 56q42 28 139 28h377z" />
    <glyph glyph-name="endash" unicode="&#x2013;" horiz-adv-x="500" 
d="M0 237v79h500v-79h-500z" />
    <glyph glyph-name="emdash" unicode="&#x2014;" horiz-adv-x="1000" 
d="M0 237v79h1000v-79h-1000z" />
    <glyph glyph-name="quoteleft" unicode="&#x2018;" horiz-adv-x="296" 
d="M55 516l122 244l64 -31l-93 -251z" />
    <glyph glyph-name="quoteright" unicode="&#x2019;" horiz-adv-x="296" 
d="M55 509l93 251l93 -38l-122 -244z" />
    <glyph glyph-name="quotesinglbase" unicode="&#x201a;" horiz-adv-x="296" 
d="M37 -136l93 251l93 -38l-122 -244z" />
    <glyph glyph-name="quotedblleft" unicode="&#x201c;" horiz-adv-x="520" 
d="M271 516l122 244l64 -31l-93 -251zM63 516l122 244l64 -31l-93 -251z" />
    <glyph glyph-name="quotedblright" unicode="&#x201d;" horiz-adv-x="520" 
d="M63 509l93 251l93 -38l-122 -244zM271 509l93 251l93 -38l-122 -244z" />
    <glyph glyph-name="quotedblbase" unicode="&#x201e;" horiz-adv-x="520" 
d="M52 -136l93 251l93 -38l-122 -244zM260 -136l93 251l93 -38l-122 -244z" />
    <glyph glyph-name="dagger" unicode="&#x2020;" horiz-adv-x="520" 
d="M215 544v216h90v-216h169v-84h-169v-574h-90v574h-169v84h169z" />
    <glyph glyph-name="daggerdbl" unicode="&#x2021;" horiz-adv-x="520" 
d="M215 168v310h-169v84h169v198h90v-198h169v-84h-169v-310h169v-84h-169v-198h-90v198h-169v84h169z" />
    <glyph glyph-name="bullet" unicode="&#x2022;" horiz-adv-x="500" 
d="M60 380q0 79 55.5 134.5t134.5 55.5t134.5 -55.5t55.5 -134.5t-55.5 -134.5t-134.5 -55.5t-134.5 55.5t-55.5 134.5z" />
    <glyph glyph-name="ellipsis" unicode="&#x2026;" horiz-adv-x="1000" 
d="M101 58q0 27 19.5 46.5t46.5 19.5t46.5 -19.5t19.5 -46.5t-19.5 -46.5t-46.5 -19.5t-46.5 19.5t-19.5 46.5zM434 58q0 27 19.5 46.5t46.5 19.5t46.5 -19.5t19.5 -46.5t-19.5 -46.5t-46.5 -19.5t-46.5 19.5t-19.5 46.5zM767 58q0 27 19.5 46.5t46.5 19.5t46.5 -19.5
t19.5 -46.5t-19.5 -46.5t-46.5 -19.5t-46.5 19.5t-19.5 46.5z" />
    <glyph glyph-name="perthousand" unicode="&#x2030;" horiz-adv-x="1000" 
d="M81 597v-53q0 -81 62 -81q63 0 63 81v53q0 82 -63 82q-62 0 -62 -82zM77 -8l418 750h79l-418 -750h-79zM445 189v-53q0 -81 62 -81q63 0 63 81v53q0 82 -63 82q-62 0 -62 -82zM7 532v77q0 61 37.5 97t98.5 36t99 -36t38 -97v-77q0 -61 -38 -96.5t-99 -35.5t-98.5 35.5
t-37.5 96.5zM371 124v77q0 61 37.5 97t98.5 36t99 -36t38 -97v-77q0 -61 -38 -96.5t-99 -35.5t-98.5 35.5t-37.5 96.5zM720 124v77q0 61 37.5 97t98.5 36t99 -36t38 -97v-77q0 -61 -38 -96.5t-99 -35.5t-98.5 35.5t-37.5 96.5zM794 189v-53q0 -81 62 -81q63 0 63 81v53
q0 82 -63 82q-62 0 -62 -82z" />
    <glyph glyph-name="guilsinglleft" unicode="&#x2039;" horiz-adv-x="296" 
d="M55 276l107 192h84l-112 -192l112 -192h-84z" />
    <glyph glyph-name="guilsinglright" unicode="&#x203a;" horiz-adv-x="296" 
d="M162 276l-112 192h84l107 -192l-107 -192h-84z" />
    <glyph glyph-name="fraction" unicode="&#x2044;" horiz-adv-x="167" 
d="M-165 -8l418 750h79l-418 -750h-79z" />
    <glyph glyph-name="Euro" unicode="&#x20ac;" horiz-adv-x="520" 
d="M478 701v-84q-48 46 -135 46q-73 0 -113.5 -51t-48.5 -139h258l-22 -67h-244q0 -5 -0.5 -18.5t-0.5 -19.5q0 -7 0.5 -20t0.5 -18h220l-22 -67h-190q20 -194 163 -194q83 0 134 47v-86q-43 -37 -147 -37q-205 0 -235 270h-72l21 67h44q-1 9 -1 38q0 27 1 38h-65l21 67h49
q15 127 73.5 197.5t164.5 70.5q95 0 146 -40z" />
    <glyph glyph-name="afii61289" unicode="&#x2113;" horiz-adv-x="464" 
d="M406 156l36 -34q-61 -125 -178 -125q-80 0 -118.5 53t-41.5 138v14q-7 -7 -16 -14.5t-20 -17t-17 -15.5l-24 47q60 54 77 72v280q0 128 43 187.5t107 59.5q58 0 88.5 -46t30.5 -121q0 -173 -192 -373v-41q1 -80 28.5 -118.5t71.5 -38.5q72 0 125 93zM181 555v-212
q139 165 139 292q0 103 -64 103q-31 0 -53 -44t-22 -139z" />
    <glyph glyph-name="trademark" unicode="&#x2122;" horiz-adv-x="990" 
d="M664 456l117 304h113v-412h-74v338h-2l-129 -338h-50l-129 338h-2v-338h-74v412h113zM163 348v356h-127v56h328v-56h-127v-356h-74z" />
    <glyph glyph-name="Omega" unicode="&#x2126;" horiz-adv-x="667" 
d="M181 69v3q-54 56 -89 138.5t-35 181.5q0 151 79 246.5t201 95.5t197 -99t75 -237q0 -103 -36.5 -188.5t-89.5 -137.5v-3h139v-69h-228v51q56 43 94 129t38 200q0 70 -20.5 133t-65 106.5t-105.5 43.5q-88 0 -142 -81t-54 -204q0 -108 39 -197.5t93 -129.5v-51h-227v69
h137z" />
    <glyph glyph-name="estimated" unicode="&#x212e;" horiz-adv-x="904" 
d="M868 357h-674q-6 0 -6 -5v-204q0 -14 9 -23q106 -111 255 -111q160 0 269 124h60q-57 -67 -144 -106t-186 -39q-173 0 -294.5 109.5t-121.5 264.5t122 265t294 110q173 0 295 -110t122 -265v-10zM715 383v205q0 15 -10 25q-108 106 -253 106q-146 0 -254 -110
q-10 -9 -10 -25v-201q0 -7 6 -7h517q4 0 4 7z" />
    <glyph glyph-name="partialdiff" unicode="&#x2202;" horiz-adv-x="523" 
d="M98 698l-26 63q67 56 159 56q102 0 172.5 -99t70.5 -290q0 -197 -65 -314t-185 -117q-87 0 -135 69.5t-48 168.5q0 120 59.5 193.5t143.5 73.5q54 0 93 -28.5t56 -59.5h1q1 11 1 41q0 126 -50 209t-123 83q-69 0 -124 -49zM231 67h1q62 0 103 77.5t50 186.5
q-12 38 -46.5 70.5t-81.5 32.5q-57 0 -96.5 -59t-39.5 -141q0 -74 30 -120.5t80 -46.5z" />
    <glyph glyph-name="Delta" unicode="&#x2206;" horiz-adv-x="610" 
d="M30 0v55l230 686h94l226 -685v-56h-550zM111 68h383l-129 380q-7 24 -30 93.5t-29 95.5h-4q-5 -23 -27 -89.5t-28 -85.5z" />
    <glyph glyph-name="product" unicode="&#x220f;" horiz-adv-x="665" 
d="M637 646h-99v-746h-80v746h-252v-746h-81v746h-99v77h611v-77z" />
    <glyph glyph-name="summation" unicode="&#x2211;" horiz-adv-x="524" 
d="M502 -100h-479v57l250 354l-240 353v59h454v-71h-344v-4l221 -323l-241 -342v-3h379v-80z" />
    <glyph glyph-name="minus" unicode="&#x2212;" horiz-adv-x="600" 
d="M47 216v74h506v-74h-506z" />
    <glyph glyph-name="uni2215" unicode="&#x2215;" horiz-adv-x="167" 
d="M-165 -8l418 750h79l-418 -750h-79z" />
    <glyph glyph-name="uni2219" unicode="&#x2219;" horiz-adv-x="260" 
d="M64 323q0 27 19.5 46.5t46.5 19.5t46.5 -19.5t19.5 -46.5t-19.5 -46.5t-46.5 -19.5t-46.5 19.5t-19.5 46.5z" />
    <glyph glyph-name="radical" unicode="&#x221a;" horiz-adv-x="550" 
d="M549 862l-211 -1014h-69l-150 476l-71 -27l-15 50l137 54l115 -367q2 -10 6 -28t7 -31t4 -22l1 -1q6 40 13 82l174 828h59z" />
    <glyph glyph-name="infinity" unicode="&#x221e;" horiz-adv-x="758" 
d="M709 301v-1q0 -70 -45 -114.5t-106 -44.5q-44 0 -84.5 27t-93.5 88q-48 -56 -89 -85.5t-95 -29.5q-61 0 -104.5 44.5t-43.5 110.5q0 68 44 112.5t111 44.5q51 0 93 -30t87 -84q56 62 82 80q47 35 100 34q64 0 104 -42.5t40 -109.5zM203 192h1q13 0 25 2.5t24.5 10.5
t21 13t22 18t18.5 18t20 21.5t17 18.5q-23 29 -34 41.5t-32.5 33t-42.5 28.5t-46 8q-44 0 -70 -32t-25 -78q0 -43 28.5 -73t72.5 -30zM559 405h-1q-18 0 -36 -7t-35.5 -21.5t-28 -24.5t-27.5 -29.5t-21 -23.5q52 -60 83.5 -83.5t67.5 -23.5q43 0 69 31.5t26 72.5
q0 50 -27 79.5t-70 29.5z" />
    <glyph glyph-name="integral" unicode="&#x222b;" horiz-adv-x="356" 
d="M336 872l-12 -58q-16 9 -35 9q-30 0 -48 -25q-31 -40 -31 -183q0 -80 6.5 -255.5t6.5 -262.5q0 -142 -41 -210q-32 -55 -101 -55q-37 0 -64 16l13 61q25 -11 42 -11q28 0 45 24q30 44 30 175q0 87 -6.5 265t-6.5 260q0 87 12 138.5t41 82.5q36 42 96 42q29 0 53 -13z" />
    <glyph glyph-name="approxequal" unicode="&#x2248;" horiz-adv-x="534" 
d="M458 442l32 -28q-45 -97 -124 -97q-26 0 -48 9t-62 32q-57 34 -88 34q-30 0 -50.5 -19t-41.5 -54l-34 27q21 44 56 70t76 26q14 0 26.5 -2.5t25.5 -8t19.5 -8.5t20 -11t15.5 -9q3 -2 13 -7.5t13.5 -7.5t11.5 -6.5t12.5 -6t11.5 -3.5t13 -3t13 -1q28 0 48 18t41 56z
M458 273l32 -28q-45 -96 -124 -96q-41 0 -110 40q-55 34 -88 34q-30 0 -50 -19t-42 -55l-34 28q22 45 56.5 71t75.5 26q17 0 34 -4.5t27 -9.5t25.5 -14t20.5 -11q3 -2 11.5 -7t11 -6.5t10 -5.5t11 -5.5t10 -4t11.5 -3.5t11 -2t12 -1q28 0 47.5 17.5t41.5 55.5z" />
    <glyph glyph-name="notequal" unicode="&#x2260;" horiz-adv-x="534" 
d="M382 510l-42 -94h144v-52h-164l-63 -141h227v-52h-247l-50 -112l-41 17l42 95h-139v52h160l62 141h-222v52h242l49 111z" />
    <glyph glyph-name="lessequal" unicode="&#x2264;" horiz-adv-x="534" 
d="M482 105l-428 223v56l428 222v-63l-374 -185v-2l374 -187v-64zM485 11h-436v54h436v-54z" />
    <glyph glyph-name="greaterequal" unicode="&#x2265;" horiz-adv-x="534" 
d="M55 606l428 -223v-55l-428 -223v64l373 186v2l-373 186v63zM484 11h-434v54h434v-54z" />
    <glyph glyph-name="lozenge" unicode="&#x25ca;" horiz-adv-x="550" 
d="M498 361l-191 -405h-67l-188 405l192 405h66zM424 359l-129 277q-14 38 -18 58h-3q-7 -30 -19 -58l-129 -273l130 -280q9 -21 17 -56h4q7 34 17 55z" />
    </font>
</defs>
</svg>
